<svg width="31" height="31" viewBox="0 0 31 31" fill="none" xmlns="http://www.w3.org/2000/svg">
<circle cx="15.5" cy="15.5" r="15.5" fill="white"/>
<path d="M15.5 0C6.9402 0 0 6.9402 0 15.5C0 24.0598 6.9402 31 15.5 31C24.0598 31 31 24.0598 31 15.5C31 6.9402 24.0598 0 15.5 0ZM24.6323 10.2142H24.1515C23.6201 10.2142 23.1899 10.6444 23.1899 11.1758V19.5869C23.1899 20.1184 23.6201 20.5486 24.1515 20.5486H24.6323V22.7122H18.0243V20.5486H19.3465V11.0683L16.101 22.7091H13.5767L10.3312 11.0683V20.5454H11.6535V22.7091H6.12724V20.5454H6.60806C7.13949 20.5454 7.56969 20.1152 7.56969 19.5838V11.1758C7.56969 10.6444 7.13949 10.2142 6.60806 10.2142H6.12724V8.05051H13.0959L15.3798 16.5818L17.6637 8.05051H24.6323V10.2142Z" fill="black"/>
</svg>
