<svg width="31" height="31" viewBox="0 0 31 31" fill="none" xmlns="http://www.w3.org/2000/svg">
<path d="M15.5 31C24.0604 31 31 24.0604 31 15.5C31 6.93959 24.0604 0 15.5 0C6.93959 0 0 6.93959 0 15.5C0 24.0604 6.93959 31 15.5 31Z" fill="#FF4500"/>
<path d="M16.3509 5.62709C16.3811 5.49519 16.4622 5.38059 16.5766 5.30829C16.691 5.23599 16.8293 5.21186 16.9614 5.24117L21.1496 6.16801C21.3314 5.81359 21.6347 5.5365 22.0041 5.38745C22.3735 5.2384 22.7843 5.22737 23.1611 5.35636C23.538 5.48535 23.8558 5.74575 24.0564 6.08989C24.257 6.43403 24.3269 6.8389 24.2535 7.2304C24.18 7.62189 23.9679 7.97383 23.6562 8.2218C23.3445 8.46977 22.9539 8.59719 22.5559 8.58073C22.1579 8.56427 21.7791 8.40504 21.4889 8.13217C21.1987 7.85931 21.0165 7.49107 20.9756 7.09484L17.1797 6.25341L15.8922 11.7891C18.3672 11.817 20.7723 12.6128 22.7755 14.0667C23.0252 13.8097 23.3286 13.6109 23.6639 13.4844C23.9993 13.3579 24.3583 13.3069 24.7156 13.335C25.0729 13.3631 25.4196 13.4696 25.7311 13.6469C26.0425 13.8242 26.3111 14.068 26.5176 14.3609C26.5651 14.4354 26.6084 14.5125 26.6473 14.5918C26.9436 15.1919 26.9902 15.8849 26.7768 16.5193C26.5634 17.1536 26.1073 17.6776 25.5085 17.9765C25.629 19.042 25.4571 20.1202 25.0113 21.0955C24.5655 22.0707 23.8625 22.9061 22.9779 23.5122C20.7894 25.042 18.1693 25.8322 15.5 25.7676C12.8305 25.8327 10.2103 25.0424 8.022 23.5122C7.13738 22.9061 6.43444 22.0707 5.98862 21.0955C5.5428 20.1202 5.37091 19.042 5.49139 17.9765C5.41207 17.9376 5.33498 17.8943 5.26047 17.8468C4.69783 17.4869 4.30029 16.9191 4.15452 16.2673C4.00875 15.6155 4.12658 14.9325 4.48231 14.3672C4.56763 14.2476 4.66286 14.1355 4.767 14.0319C5.23054 13.5789 5.8548 13.3281 6.50292 13.3346C7.15104 13.3412 7.77012 13.6044 8.22445 14.0667C10.1778 12.6491 12.5147 11.8562 14.9274 11.7923L16.3509 5.62709ZM17.7396 17.4577C17.7396 17.7893 17.8379 18.1134 18.0221 18.3891C18.2063 18.6648 18.4682 18.8797 18.7745 19.0066C19.0808 19.1335 19.4179 19.1667 19.7432 19.102C20.0684 19.0373 20.3671 18.8777 20.6016 18.6432C20.836 18.4087 20.9957 18.11 21.0604 17.7848C21.1251 17.4596 21.0919 17.1225 20.965 16.8161C20.8381 16.5098 20.6232 16.2479 20.3475 16.0637C20.0718 15.8795 19.7477 15.7812 19.4161 15.7812C19.1958 15.7808 18.9776 15.8238 18.774 15.9079C18.5704 15.992 18.3854 16.1155 18.2297 16.2713C18.0739 16.427 17.9504 16.612 17.8663 16.8156C17.7822 17.0192 17.7391 17.2374 17.7396 17.4577ZM19.7356 22.0792C19.7978 22.0166 19.8367 21.9346 19.8457 21.8468C19.8548 21.7591 19.8335 21.6708 19.7854 21.5968C19.7374 21.5228 19.6654 21.4676 19.5814 21.4402C19.4975 21.4129 19.4068 21.4151 19.3243 21.4466C18.211 22.25 16.8729 22.6824 15.5 22.6824C14.127 22.6824 12.7889 22.25 11.6756 21.4466C11.5931 21.4151 11.5024 21.4129 11.4185 21.4402C11.3346 21.4676 11.2626 21.5228 11.2145 21.5968C11.1664 21.6708 11.1451 21.7591 11.1542 21.8468C11.1632 21.9346 11.2021 22.0166 11.2643 22.0792C12.4932 22.9793 13.9768 23.4645 15.5 23.4645C17.0232 23.4645 18.5068 22.9793 19.7356 22.0792ZM9.90731 17.4577C9.90731 17.7893 10.0056 18.1134 10.1899 18.3891C10.3741 18.6648 10.6359 18.8797 10.9423 19.0066C11.2486 19.1335 11.5857 19.1667 11.9109 19.102C12.2361 19.0373 12.5349 18.8777 12.7693 18.6432C13.0038 18.4087 13.1635 18.11 13.2282 17.7848C13.2928 17.4596 13.2596 17.1225 13.1328 16.8161C13.0059 16.5098 12.791 16.2479 12.5153 16.0637C12.2396 15.8795 11.9154 15.7812 11.5838 15.7812C11.3636 15.7808 11.1454 15.8238 10.9418 15.9079C10.7382 15.992 10.5532 16.1155 10.3974 16.2713C10.2417 16.427 10.1182 16.612 10.0341 16.8156C9.94997 17.0192 9.90689 17.2374 9.90731 17.4577Z" fill="white"/>
</svg>
