<svg width="31" height="31" viewBox="0 0 31 31" fill="none" xmlns="http://www.w3.org/2000/svg">
<path d="M15.5 31C24.0604 31 31 24.0604 31 15.5C31 6.93959 24.0604 0 15.5 0C6.93959 0 0 6.93959 0 15.5C0 24.0604 6.93959 31 15.5 31Z" fill="url(#paint0_linear)"/>
<path d="M12.6583 22.6043C12.1561 22.6043 12.2415 22.4147 12.0683 21.9365L10.5917 17.0769L21.9583 10.3335" fill="#C8DAEA"/>
<path d="M12.6583 22.6039C13.0458 22.6039 13.217 22.4267 13.4333 22.2164L15.5 20.2069L12.9221 18.6523" fill="#A9C9DD"/>
<path d="M12.9218 18.653L19.1683 23.268C19.8812 23.6613 20.3955 23.4576 20.5732 22.6062L23.1158 10.6243C23.3761 9.58067 22.718 9.10715 22.036 9.41676L7.10559 15.1739C6.08647 15.5827 6.09254 16.1513 6.91985 16.4046L10.7513 17.6005L19.6216 12.0044C20.0403 11.7504 20.4247 11.8868 20.1093 12.1669" fill="url(#paint1_linear)"/>
<defs>
<linearGradient id="paint0_linear" x1="20.677" y1="5.177" x2="12.927" y2="23.25" gradientUnits="userSpaceOnUse">
<stop stop-color="#37AEE2"/>
<stop offset="1" stop-color="#1E96C8"/>
</linearGradient>
<linearGradient id="paint1_linear" x1="17.4432" y1="15.5012" x2="19.8621" y2="21.0126" gradientUnits="userSpaceOnUse">
<stop stop-color="#EFF7FC"/>
<stop offset="1" stop-color="white"/>
</linearGradient>
</defs>
</svg>
