<svg width="312" height="50" viewBox="0 0 312 50" fill="none" xmlns="http://www.w3.org/2000/svg">
<rect x="95" y="24" width="192" height="26" fill="#FD5CFA"/>
<path d="M8.49 27.68H12.93L20.28 47H16.08L14.25 42.35H7.14L5.34 47H1.11L8.49 27.68ZM13.65 39.23L10.68 31.46L7.74 39.23H13.65ZM31.6167 47.3C30.6367 47.3 29.7667 47.17 29.0067 46.91C28.2667 46.65 27.5867 46.24 26.9667 45.68L26.7567 47H23.2467V26.78H27.2967V33.56C28.4767 32.84 29.8767 32.48 31.4967 32.48C33.6167 32.48 35.2467 33.08 36.3867 34.28C37.5467 35.46 38.1267 37.29 38.1267 39.77C38.1267 42.27 37.5567 44.15 36.4167 45.41C35.2767 46.67 33.6767 47.3 31.6167 47.3ZM30.4767 44.33C31.7367 44.33 32.6367 43.96 33.1767 43.22C33.7367 42.48 34.0167 41.33 34.0167 39.77C34.0167 38.21 33.7367 37.1 33.1767 36.44C32.6167 35.78 31.7067 35.45 30.4467 35.45C29.8067 35.45 29.2167 35.54 28.6767 35.72C28.1367 35.9 27.6767 36.16 27.2967 36.5V43.04C27.6767 43.46 28.1467 43.78 28.7067 44C29.2667 44.22 29.8567 44.33 30.4767 44.33ZM47.4403 47.3C42.3003 47.3 39.7303 44.83 39.7303 39.89C39.7303 37.49 40.3603 35.66 41.6203 34.4C42.9003 33.12 44.8403 32.48 47.4403 32.48C50.0403 32.48 51.9803 33.12 53.2603 34.4C54.5403 35.66 55.1803 37.49 55.1803 39.89C55.1803 44.83 52.6003 47.3 47.4403 47.3ZM47.4403 43.85C48.7603 43.85 49.6903 43.55 50.2303 42.95C50.7903 42.35 51.0703 41.33 51.0703 39.89C51.0703 38.45 50.7903 37.43 50.2303 36.83C49.6903 36.23 48.7603 35.93 47.4403 35.93C46.1403 35.93 45.2103 36.23 44.6503 36.83C44.1103 37.43 43.8403 38.45 43.8403 39.89C43.8403 41.33 44.1103 42.35 44.6503 42.95C45.2103 43.55 46.1403 43.85 47.4403 43.85ZM63.3963 47.3C61.6763 47.3 60.3463 46.82 59.4063 45.86C58.4663 44.9 57.9963 43.51 57.9963 41.69V32.78H62.0463V41.6C62.0463 42.54 62.2663 43.23 62.7063 43.67C63.1663 44.11 63.8663 44.33 64.8063 44.33C65.4863 44.33 66.1163 44.2 66.6963 43.94C67.2963 43.66 67.8163 43.3 68.2563 42.86V32.78H72.3063V47H68.5563L68.4063 45.65C67.0263 46.75 65.3563 47.3 63.3963 47.3ZM81.5437 47.3C79.9237 47.3 78.7137 46.88 77.9137 46.04C77.1137 45.2 76.7137 44.02 76.7137 42.5V35.9H74.7037V32.78H76.7137V29.72L80.7637 28.52V32.78H84.3637L84.1237 35.9H80.7637V42.23C80.7637 42.99 80.9337 43.52 81.2737 43.82C81.6337 44.12 82.2037 44.27 82.9837 44.27C83.5437 44.27 84.1237 44.17 84.7237 43.97V46.76C83.8237 47.12 82.7637 47.3 81.5437 47.3Z" fill="#5251D1"/>
<path d="M98.0592 27.68H107.329C109.489 27.68 111.099 28.25 112.159 29.39C113.239 30.53 113.779 32.12 113.779 34.16C113.779 35.46 113.439 36.58 112.759 37.52C112.099 38.46 111.159 39.14 109.939 39.56C110.239 39.82 110.479 40.1 110.659 40.4C110.859 40.68 111.069 41.08 111.289 41.6L113.629 47H109.429L107.149 41.81C106.949 41.35 106.719 41.04 106.459 40.88C106.219 40.7 105.829 40.61 105.289 40.61H102.109V47H98.0592V27.68ZM106.279 37.25C107.379 37.25 108.219 37.01 108.799 36.53C109.379 36.03 109.669 35.24 109.669 34.16C109.669 33.08 109.409 32.29 108.889 31.79C108.369 31.29 107.579 31.04 106.519 31.04H102.109V37.25H106.279ZM119.876 47.3C118.436 47.3 117.226 46.92 116.246 46.16C115.286 45.38 114.806 44.29 114.806 42.89C114.806 41.47 115.306 40.35 116.306 39.53C117.326 38.69 118.786 38.27 120.686 38.27H124.886V37.88C124.886 37.28 124.776 36.81 124.556 36.47C124.356 36.13 123.986 35.88 123.446 35.72C122.926 35.56 122.176 35.48 121.196 35.48C119.576 35.48 118.016 35.73 116.516 36.23V33.38C117.216 33.1 118.036 32.88 118.976 32.72C119.936 32.56 120.956 32.48 122.036 32.48C126.516 32.48 128.756 34.31 128.756 37.97V47H125.246L125.036 45.71C123.876 46.77 122.156 47.3 119.876 47.3ZM120.986 44.63C121.846 44.63 122.606 44.49 123.266 44.21C123.946 43.91 124.486 43.52 124.886 43.04V40.79H120.776C119.196 40.79 118.406 41.44 118.406 42.74C118.406 44 119.266 44.63 120.986 44.63ZM138.108 47.3C136.088 47.3 134.488 46.75 133.308 45.65C132.148 44.53 131.568 42.75 131.568 40.31C131.568 38.67 131.868 37.26 132.468 36.08C133.088 34.9 133.908 34.01 134.928 33.41C135.968 32.79 137.128 32.48 138.408 32.48C139.968 32.48 141.298 32.84 142.398 33.56V26.78H146.448V47H142.968L142.728 45.68C142.108 46.22 141.428 46.63 140.688 46.91C139.948 47.17 139.088 47.3 138.108 47.3ZM139.218 44.33C139.878 44.33 140.458 44.23 140.958 44.03C141.458 43.83 141.938 43.5 142.398 43.04V36.56C141.558 35.82 140.578 35.45 139.458 35.45C138.218 35.45 137.278 35.86 136.638 36.68C135.998 37.5 135.678 38.71 135.678 40.31C135.678 41.77 135.968 42.81 136.548 43.43C137.148 44.03 138.038 44.33 139.218 44.33ZM151.813 26.99H156.223V30.17H151.813V26.99ZM152.143 35.78H150.013L150.373 32.78H156.193V47H152.143V35.78ZM167.062 47.3C164.522 47.3 162.572 46.67 161.212 45.41C159.872 44.15 159.202 42.31 159.202 39.89C159.202 37.45 159.912 35.61 161.332 34.37C162.752 33.11 164.702 32.48 167.182 32.48C168.182 32.48 169.042 32.55 169.762 32.69C170.482 32.83 171.182 33.06 171.862 33.38V36.29C170.782 35.77 169.492 35.51 167.992 35.51C166.412 35.51 165.232 35.84 164.452 36.5C163.692 37.16 163.312 38.29 163.312 39.89C163.312 41.43 163.672 42.55 164.392 43.25C165.132 43.93 166.322 44.27 167.962 44.27C169.442 44.27 170.752 43.99 171.892 43.43V46.43C170.552 47.01 168.942 47.3 167.062 47.3ZM178.824 47.3C177.444 47.3 176.434 46.98 175.794 46.34C175.174 45.7 174.864 44.68 174.864 43.28V26.78H178.914V42.95C178.914 43.45 179.004 43.8 179.184 44C179.384 44.18 179.684 44.27 180.084 44.27C180.604 44.27 181.074 44.2 181.494 44.06V46.85C181.074 47.01 180.664 47.12 180.264 47.18C179.864 47.26 179.384 47.3 178.824 47.3ZM190.012 47.3C187.492 47.3 185.522 46.68 184.102 45.44C182.702 44.18 182.002 42.32 182.002 39.86C182.002 37.54 182.612 35.73 183.832 34.43C185.072 33.13 186.872 32.48 189.232 32.48C191.392 32.48 193.062 33.05 194.242 34.19C195.442 35.31 196.042 36.82 196.042 38.72V41.3H185.752C185.952 42.4 186.452 43.17 187.252 43.61C188.072 44.05 189.272 44.27 190.852 44.27C191.612 44.27 192.382 44.2 193.162 44.06C193.962 43.92 194.642 43.74 195.202 43.52V46.4C193.882 47 192.152 47.3 190.012 47.3ZM192.502 38.81V38.03C192.502 36.27 191.452 35.39 189.352 35.39C188.032 35.39 187.102 35.66 186.562 36.2C186.022 36.72 185.752 37.59 185.752 38.81H192.502ZM213.332 49.16C211.992 47.92 210.992 46.31 210.332 44.33C209.692 42.33 209.372 40.19 209.372 37.91C209.372 35.63 209.692 33.5 210.332 31.52C210.992 29.52 211.992 27.9 213.332 26.66H217.922C214.962 29.28 213.482 33.03 213.482 37.91C213.482 42.79 214.962 46.54 217.922 49.16H213.332ZM220.317 27.68H229.587C231.747 27.68 233.357 28.25 234.417 29.39C235.497 30.53 236.037 32.12 236.037 34.16C236.037 35.46 235.697 36.58 235.017 37.52C234.357 38.46 233.417 39.14 232.197 39.56C232.497 39.82 232.737 40.1 232.917 40.4C233.117 40.68 233.327 41.08 233.547 41.6L235.887 47H231.687L229.407 41.81C229.207 41.35 228.977 41.04 228.717 40.88C228.477 40.7 228.087 40.61 227.547 40.61H224.367V47H220.317V27.68ZM228.537 37.25C229.637 37.25 230.477 37.01 231.057 36.53C231.637 36.03 231.927 35.24 231.927 34.16C231.927 33.08 231.667 32.29 231.147 31.79C230.627 31.29 229.837 31.04 228.777 31.04H224.367V37.25H228.537ZM244.445 27.68H248.885L256.235 47H252.035L250.205 42.35H243.095L241.295 47H237.065L244.445 27.68ZM249.605 39.23L246.635 31.46L243.695 39.23H249.605ZM259.201 27.68H267.301C270.261 27.68 272.461 28.45 273.901 29.99C275.341 31.51 276.061 33.99 276.061 37.43C276.061 40.71 275.341 43.13 273.901 44.69C272.461 46.23 270.261 47 267.301 47H259.201V27.68ZM266.731 43.88C267.951 43.88 268.931 43.7 269.671 43.34C270.411 42.98 270.971 42.33 271.351 41.39C271.751 40.45 271.951 39.13 271.951 37.43C271.951 35.71 271.771 34.39 271.411 33.47C271.071 32.55 270.531 31.92 269.791 31.58C269.051 31.22 268.031 31.04 266.731 31.04H263.251V43.88H266.731ZM277.839 49.16C279.399 47.8 280.529 46.18 281.229 44.3C281.929 42.42 282.279 40.29 282.279 37.91C282.279 33.01 280.799 29.26 277.839 26.66H282.459C283.779 27.9 284.759 29.52 285.399 31.52C286.059 33.5 286.389 35.63 286.389 37.91C286.389 40.19 286.059 42.33 285.399 44.33C284.759 46.31 283.779 47.92 282.459 49.16H277.839Z" fill="white"/>
<rect x="91" width="11" height="11" fill="#FD5CFA"/>
<rect x="301" y="28" width="11" height="11" fill="#FD5CFA"/>
<rect x="112" y="11" width="6" height="6" fill="#FD5CFA"/>
</svg>
