<svg width="240" height="92" viewBox="0 0 240 92" fill="none" xmlns="http://www.w3.org/2000/svg">
<rect x="71" y="38" width="154" height="35" fill="#FD5CFA"/>
<path d="M12.25 64.35C4.94667 64.35 1.295 60.5117 1.295 52.835C1.295 48.775 2.19333 45.8117 3.99 43.945C5.81 42.055 8.56333 41.11 12.25 41.11C15.9367 41.11 18.6783 42.055 20.475 43.945C22.295 45.8117 23.205 48.775 23.205 52.835C23.205 60.5117 19.5533 64.35 12.25 64.35ZM12.25 60.325C14.35 60.325 15.9017 59.7183 16.905 58.505C17.9083 57.2683 18.41 55.3783 18.41 52.835C18.41 50.0583 17.92 48.0867 16.94 46.92C15.96 45.73 14.3967 45.135 12.25 45.135C10.1033 45.135 8.54 45.73 7.56 46.92C6.58 48.0867 6.09 50.0583 6.09 52.835C6.09 55.3783 6.59167 57.2683 7.595 58.505C8.59833 59.7183 10.15 60.325 12.25 60.325ZM33.1518 64.35C31.1452 64.35 29.5935 63.79 28.4968 62.67C27.4002 61.55 26.8518 59.9283 26.8518 57.805V47.41H31.5768V57.7C31.5768 58.7967 31.8335 59.6017 32.3468 60.115C32.8835 60.6283 33.7002 60.885 34.7968 60.885C35.5902 60.885 36.3252 60.7333 37.0018 60.43C37.7018 60.1033 38.3085 59.6833 38.8218 59.17V47.41H43.5468V64H39.1718L38.9968 62.425C37.3868 63.7083 35.4385 64.35 33.1518 64.35ZM48.0938 47.41H52.4688L52.6788 49.125C53.4488 48.635 54.3822 48.2033 55.4788 47.83C56.5755 47.4567 57.6605 47.2 58.7338 47.06V50.63C57.7305 50.77 56.6572 51.015 55.5138 51.365C54.3705 51.6917 53.4722 52.0417 52.8188 52.415V64H48.0938V47.41Z" fill="black"/>
<path d="M74.9837 41.46H85.7987C88.3187 41.46 90.197 42.125 91.4337 43.455C92.6937 44.785 93.3237 46.64 93.3237 49.02C93.3237 50.5367 92.927 51.8433 92.1337 52.94C91.3637 54.0367 90.267 54.83 88.8437 55.32C89.1937 55.6233 89.4737 55.95 89.6837 56.3C89.917 56.6267 90.162 57.0933 90.4187 57.7L93.1487 64H88.2487L85.5887 57.945C85.3553 57.4083 85.087 57.0467 84.7837 56.86C84.5037 56.65 84.0487 56.545 83.4187 56.545H79.7087V64H74.9837V41.46ZM84.5737 52.625C85.857 52.625 86.837 52.345 87.5137 51.785C88.1903 51.2017 88.5287 50.28 88.5287 49.02C88.5287 47.76 88.2253 46.8383 87.6187 46.255C87.012 45.6717 86.0903 45.38 84.8537 45.38H79.7087V52.625H84.5737ZM103.867 64.35C97.8705 64.35 94.8721 61.4683 94.8721 55.705C94.8721 52.905 95.6071 50.77 97.0771 49.3C98.5705 47.8067 100.834 47.06 103.867 47.06C106.9 47.06 109.164 47.8067 110.657 49.3C112.15 50.77 112.897 52.905 112.897 55.705C112.897 61.4683 109.887 64.35 103.867 64.35ZM103.867 60.325C105.407 60.325 106.492 59.975 107.122 59.275C107.775 58.575 108.102 57.385 108.102 55.705C108.102 54.025 107.775 52.835 107.122 52.135C106.492 51.435 105.407 51.085 103.867 51.085C102.35 51.085 101.265 51.435 100.612 52.135C99.9821 52.835 99.6671 54.025 99.6671 55.705C99.6671 57.385 99.9821 58.575 100.612 59.275C101.265 59.975 102.35 60.325 103.867 60.325ZM121.034 64.35C119.354 64.35 117.942 63.9067 116.799 63.02C115.679 62.11 115.119 60.8383 115.119 59.205C115.119 57.5483 115.702 56.2417 116.869 55.285C118.059 54.305 119.762 53.815 121.979 53.815H126.879V53.36C126.879 52.66 126.75 52.1117 126.494 51.715C126.26 51.3183 125.829 51.0267 125.199 50.84C124.592 50.6533 123.717 50.56 122.574 50.56C120.684 50.56 118.864 50.8517 117.114 51.435V48.11C117.93 47.7833 118.887 47.5267 119.984 47.34C121.104 47.1533 122.294 47.06 123.554 47.06C128.78 47.06 131.394 49.195 131.394 53.465V64H127.299L127.054 62.495C125.7 63.7317 123.694 64.35 121.034 64.35ZM122.329 61.235C123.332 61.235 124.219 61.0717 124.989 60.745C125.782 60.395 126.412 59.94 126.879 59.38V56.755H122.084C120.24 56.755 119.319 57.5133 119.319 59.03C119.319 60.5 120.322 61.235 122.329 61.235ZM142.654 64.35C140.297 64.35 138.43 63.7083 137.054 62.425C135.7 61.1183 135.024 59.0417 135.024 56.195C135.024 54.2817 135.374 52.6367 136.074 51.26C136.797 49.8833 137.754 48.845 138.944 48.145C140.157 47.4217 141.51 47.06 143.004 47.06C144.824 47.06 146.375 47.48 147.659 48.32V40.41H152.384V64H148.324L148.044 62.46C147.32 63.09 146.527 63.5683 145.664 63.895C144.8 64.1983 143.797 64.35 142.654 64.35ZM143.949 60.885C144.719 60.885 145.395 60.7683 145.979 60.535C146.562 60.3017 147.122 59.9167 147.659 59.38V51.82C146.679 50.9567 145.535 50.525 144.229 50.525C142.782 50.525 141.685 51.0033 140.939 51.96C140.192 52.9167 139.819 54.3283 139.819 56.195C139.819 57.8983 140.157 59.1117 140.834 59.835C141.534 60.535 142.572 60.885 143.949 60.885ZM156.893 47.41H161.268L161.443 49.02C163.17 47.7133 165.06 47.06 167.113 47.06C168.233 47.06 169.12 47.235 169.773 47.585C170.427 47.9117 170.94 48.4133 171.313 49.09C172.153 48.4367 173.063 47.935 174.043 47.585C175.047 47.235 176.19 47.06 177.473 47.06C179.387 47.06 180.798 47.5617 181.708 48.565C182.618 49.545 183.073 51.05 183.073 53.08V64H178.418V53.605C178.418 52.5317 178.185 51.75 177.718 51.26C177.252 50.77 176.505 50.525 175.478 50.525C174.825 50.525 174.183 50.665 173.553 50.945C172.947 51.2017 172.422 51.5633 171.978 52.03C172.095 52.4267 172.153 52.905 172.153 53.465V64H167.743V53.605C167.743 52.5317 167.557 51.75 167.183 51.26C166.81 50.77 166.145 50.525 165.188 50.525C163.998 50.525 162.785 51.12 161.548 52.31V64H156.893V47.41ZM192.164 64.35C190.484 64.35 189.073 63.9067 187.929 63.02C186.809 62.11 186.249 60.8383 186.249 59.205C186.249 57.5483 186.833 56.2417 187.999 55.285C189.189 54.305 190.893 53.815 193.109 53.815H198.009V53.36C198.009 52.66 197.881 52.1117 197.624 51.715C197.391 51.3183 196.959 51.0267 196.329 50.84C195.723 50.6533 194.848 50.56 193.704 50.56C191.814 50.56 189.994 50.8517 188.244 51.435V48.11C189.061 47.7833 190.018 47.5267 191.114 47.34C192.234 47.1533 193.424 47.06 194.684 47.06C199.911 47.06 202.524 49.195 202.524 53.465V64H198.429L198.184 62.495C196.831 63.7317 194.824 64.35 192.164 64.35ZM193.459 61.235C194.463 61.235 195.349 61.0717 196.119 60.745C196.913 60.395 197.543 59.94 198.009 59.38V56.755H193.214C191.371 56.755 190.449 57.5133 190.449 59.03C190.449 60.5 191.453 61.235 193.459 61.235ZM206.854 47.41H210.949L211.194 48.95C211.941 48.32 212.746 47.8533 213.609 47.55C214.473 47.2233 215.476 47.06 216.619 47.06C219.116 47.06 221.006 47.7367 222.289 49.09C223.573 50.4433 224.214 52.5783 224.214 55.495C224.214 58.435 223.526 60.6517 222.149 62.145C220.773 63.615 218.836 64.35 216.339 64.35C214.473 64.35 212.886 63.93 211.579 63.09V71.56H206.854V47.41ZM215.149 60.885C216.573 60.885 217.634 60.4533 218.334 59.59C219.058 58.7033 219.419 57.35 219.419 55.53C219.419 53.7567 219.093 52.485 218.439 51.715C217.786 50.9217 216.736 50.525 215.289 50.525C213.843 50.525 212.606 51.0267 211.579 52.03V59.625C212.116 60.045 212.653 60.36 213.189 60.57C213.749 60.78 214.403 60.885 215.149 60.885Z" fill="#5251D1"/>
<rect x="225" y="12" width="15" height="15" fill="#FD5CFA"/>
<rect x="49" y="77" width="15" height="15" fill="#FD5CFA"/>
<rect x="210" width="9" height="9" fill="#FD5CFA"/>
</svg>
