<svg width="256" height="50" viewBox="0 0 256 50" fill="none" xmlns="http://www.w3.org/2000/svg">
<rect x="98" y="27" width="120" height="23" fill="#FD5CFA"/>
<path d="M1.11 49L8.49 29.68H12.93L20.28 49H16.08L14.25 44.35H7.14L5.34 49H1.11ZM7.74 41.23H13.65L10.68 33.46L7.74 41.23ZM31.9167 49.3C30.9167 49.3 30.0467 49.17 29.3067 48.91C28.5667 48.63 27.8867 48.22 27.2667 47.68L27.0567 49H23.5467V28.78H27.5967V35.56C28.1767 35.2 28.8267 34.93 29.5467 34.75C30.2667 34.57 31.0167 34.48 31.7967 34.48C33.8367 34.48 35.4467 35.06 36.6267 36.22C37.8267 37.36 38.4267 39.21 38.4267 41.77C38.4267 44.33 37.8367 46.23 36.6567 47.47C35.4967 48.69 33.9167 49.3 31.9167 49.3ZM30.7767 46.33C32.0767 46.33 32.9867 45.95 33.5067 45.19C34.0467 44.43 34.3167 43.29 34.3167 41.77C34.3167 40.19 34.0267 39.08 33.4467 38.44C32.8867 37.78 31.9867 37.45 30.7467 37.45C30.1267 37.45 29.5367 37.54 28.9767 37.72C28.4367 37.9 27.9767 38.16 27.5967 38.5V45.04C27.9967 45.46 28.4667 45.78 29.0067 46C29.5667 46.22 30.1567 46.33 30.7767 46.33ZM48.802 49.3C46.142 49.3 44.192 48.66 42.952 47.38C41.712 46.08 41.092 44.25 41.092 41.89C41.092 39.53 41.712 37.71 42.952 36.43C44.212 35.13 46.162 34.48 48.802 34.48C51.462 34.48 53.412 35.13 54.652 36.43C55.912 37.71 56.542 39.53 56.542 41.89C56.542 44.25 55.922 46.08 54.682 47.38C53.442 48.66 51.482 49.3 48.802 49.3ZM48.802 45.85C50.102 45.85 51.032 45.56 51.592 44.98C52.152 44.38 52.432 43.35 52.432 41.89C52.432 40.43 52.152 39.41 51.592 38.83C51.032 38.23 50.102 37.93 48.802 37.93C47.522 37.93 46.602 38.23 46.042 38.83C45.482 39.41 45.202 40.43 45.202 41.89C45.202 43.35 45.482 44.38 46.042 44.98C46.602 45.56 47.522 45.85 48.802 45.85ZM65.058 49.3C63.358 49.3 62.028 48.83 61.068 47.89C60.128 46.93 59.658 45.53 59.658 43.69V34.78H63.708V43.6C63.708 44.56 63.938 45.26 64.398 45.7C64.858 46.12 65.548 46.33 66.468 46.33C67.168 46.33 67.808 46.19 68.388 45.91C68.988 45.63 69.498 45.28 69.918 44.86V34.78H73.968V49H70.218L70.068 47.65C69.468 48.13 68.758 48.53 67.938 48.85C67.138 49.15 66.178 49.3 65.058 49.3ZM83.5055 49.3C81.8655 49.3 80.6455 48.87 79.8455 48.01C79.0655 47.15 78.6755 45.98 78.6755 44.5V37.9H76.6655V34.78H78.6755V31.72L82.7255 30.52V34.78H86.3255L86.0855 37.9H82.7255V44.23C82.7255 45.01 82.9055 45.55 83.2655 45.85C83.6255 46.13 84.1855 46.27 84.9455 46.27C85.5055 46.27 86.0855 46.17 86.6855 45.97V48.76C86.2455 48.94 85.7655 49.07 85.2455 49.15C84.7255 49.25 84.1455 49.3 83.5055 49.3Z" fill="#5251D1"/>
<path d="M102.256 49.3C101.016 49.3 99.8557 49.21 98.7757 49.03C97.7157 48.85 96.7957 48.59 96.0157 48.25V44.68C96.8957 45.04 97.8457 45.33 98.8657 45.55C99.8857 45.77 100.886 45.88 101.866 45.88C103.266 45.88 104.296 45.75 104.956 45.49C105.616 45.23 105.946 44.64 105.946 43.72C105.946 43.14 105.806 42.68 105.526 42.34C105.246 42 104.756 41.7 104.056 41.44C103.376 41.16 102.406 40.85 101.146 40.51C99.1257 39.95 97.7057 39.25 96.8857 38.41C96.0657 37.57 95.6557 36.41 95.6557 34.93C95.6557 33.15 96.3057 31.78 97.6057 30.82C98.9057 29.86 100.796 29.38 103.276 29.38C104.436 29.38 105.516 29.46 106.516 29.62C107.516 29.78 108.326 29.97 108.946 30.19V33.76C107.306 33.14 105.596 32.83 103.816 32.83C102.556 32.83 101.566 32.97 100.846 33.25C100.126 33.51 99.7657 34.07 99.7657 34.93C99.7657 35.43 99.8957 35.83 100.156 36.13C100.416 36.43 100.856 36.7 101.476 36.94C102.116 37.18 103.006 37.45 104.146 37.75C105.726 38.17 106.946 38.67 107.806 39.25C108.666 39.83 109.256 40.49 109.576 41.23C109.916 41.97 110.086 42.8 110.086 43.72C110.086 45.4 109.446 46.75 108.166 47.77C106.886 48.79 104.916 49.3 102.256 49.3ZM117.377 49.3C116.477 49.3 115.637 49.14 114.857 48.82C114.097 48.48 113.477 47.99 112.997 47.35C112.537 46.69 112.307 45.87 112.307 44.89C112.307 43.49 112.797 42.37 113.777 41.53C114.777 40.69 116.247 40.27 118.187 40.27H122.387V39.88C122.387 39 122.137 38.38 121.637 38.02C121.157 37.66 120.177 37.48 118.697 37.48C117.077 37.48 115.517 37.73 114.017 38.23V35.38C114.677 35.12 115.477 34.91 116.417 34.75C117.377 34.57 118.417 34.48 119.537 34.48C121.677 34.48 123.327 34.92 124.487 35.8C125.667 36.66 126.257 38.05 126.257 39.97V49H122.747L122.537 47.71C121.977 48.21 121.287 48.6 120.467 48.88C119.647 49.16 118.617 49.3 117.377 49.3ZM118.487 46.63C119.387 46.63 120.167 46.48 120.827 46.18C121.487 45.88 122.007 45.5 122.387 45.04V42.79H118.277C116.697 42.79 115.907 43.44 115.907 44.74C115.907 46 116.767 46.63 118.487 46.63ZM130.718 49V37.9H128.738V34.78H130.718V33.34C130.718 31.86 131.138 30.65 131.978 29.71C132.818 28.77 134.058 28.3 135.698 28.3C136.358 28.3 136.948 28.35 137.468 28.45C137.988 28.55 138.468 28.69 138.908 28.87V31.66C138.608 31.56 138.318 31.48 138.038 31.42C137.758 31.36 137.448 31.33 137.108 31.33C136.248 31.33 135.638 31.49 135.278 31.81C134.938 32.11 134.768 32.64 134.768 33.4V34.78H138.368L138.188 37.9H134.768V49H130.718ZM147.906 49.3C145.446 49.3 143.496 48.69 142.056 47.47C140.616 46.23 139.896 44.36 139.896 41.86C139.896 39.6 140.496 37.81 141.696 36.49C142.916 35.15 144.726 34.48 147.126 34.48C149.326 34.48 151.006 35.06 152.166 36.22C153.346 37.36 153.936 38.86 153.936 40.72V43.3H143.646C143.866 44.44 144.386 45.22 145.206 45.64C146.046 46.06 147.226 46.27 148.746 46.27C149.506 46.27 150.276 46.2 151.056 46.06C151.856 45.92 152.536 45.74 153.096 45.52V48.4C152.436 48.7 151.666 48.92 150.786 49.06C149.906 49.22 148.946 49.3 147.906 49.3ZM143.646 40.81H150.396V40.03C150.396 39.21 150.156 38.57 149.676 38.11C149.196 37.63 148.386 37.39 147.246 37.39C145.906 37.39 144.966 37.66 144.426 38.2C143.906 38.74 143.646 39.61 143.646 40.81ZM157.206 49V29.68H166.476C168.696 29.68 170.326 30.27 171.366 31.45C172.406 32.61 172.926 34.18 172.926 36.16C172.926 37.46 172.586 38.58 171.906 39.52C171.246 40.46 170.306 41.14 169.086 41.56C169.406 41.82 169.656 42.1 169.836 42.4C170.036 42.7 170.236 43.1 170.436 43.6L172.776 49H168.576L166.296 43.81C166.096 43.37 165.876 43.06 165.636 42.88C165.396 42.7 164.996 42.61 164.436 42.61H161.256V49H157.206ZM161.256 39.25H165.426C166.486 39.25 167.316 39.02 167.916 38.56C168.516 38.08 168.816 37.28 168.816 36.16C168.816 35.08 168.556 34.29 168.036 33.79C167.516 33.29 166.726 33.04 165.666 33.04H161.256V39.25ZM174.253 49L181.633 29.68H186.073L193.423 49H189.223L187.393 44.35H180.283L178.483 49H174.253ZM180.883 41.23H186.793L183.823 33.46L180.883 41.23ZM196.69 49V29.68H204.79C207.69 29.68 209.87 30.43 211.33 31.93C212.81 33.41 213.55 35.91 213.55 39.43C213.55 42.75 212.82 45.18 211.36 46.72C209.92 48.24 207.73 49 204.79 49H196.69ZM200.74 45.88H204.22C205.36 45.88 206.32 45.71 207.1 45.37C207.88 45.01 208.46 44.37 208.84 43.45C209.24 42.51 209.44 41.17 209.44 39.43C209.44 37.69 209.26 36.36 208.9 35.44C208.54 34.52 207.98 33.89 207.22 33.55C206.46 33.21 205.46 33.04 204.22 33.04H200.74V45.88Z" fill="white"/>
<rect x="234" y="20" width="22" height="22" fill="#FD5CFA"/>
<rect x="221" width="11" height="11" fill="#FD5CFA"/>
</svg>
