<svg width="465" height="122" viewBox="0 0 465 122" fill="none" xmlns="http://www.w3.org/2000/svg">
<rect y="27" width="199" height="39" fill="#FD5CFA"/>
<path d="M10.75 64V37H0.85V31.8H27.35V37H17.5V64H10.75ZM31.8227 64V30.3H38.5727V42.3C39.5393 41.5667 40.7227 40.9667 42.1227 40.5C43.5227 40.0333 45.0393 39.8 46.6727 39.8C49.806 39.8 52.0893 40.5333 53.5227 42C54.956 43.4667 55.6727 45.7333 55.6727 48.8V64H48.9227V49.15C48.9227 47.55 48.5893 46.4167 47.9227 45.75C47.2893 45.0833 46.0893 44.75 44.3227 44.75C43.2893 44.75 42.2393 44.9833 41.1727 45.45C40.1393 45.9167 39.2727 46.5 38.5727 47.2V64H31.8227ZM73.4871 64.5C69.3871 64.5 66.1371 63.4833 63.7371 61.45C61.3371 59.3833 60.1371 56.2667 60.1371 52.1C60.1371 48.3333 61.1371 45.35 63.1371 43.15C65.1704 40.9167 68.1871 39.8 72.1871 39.8C75.8538 39.8 78.6538 40.7667 80.5871 42.7C82.5538 44.6 83.5371 47.1 83.5371 50.2V54.5H66.3871C66.7538 56.4 67.6204 57.7 68.9871 58.4C70.3871 59.1 72.3538 59.45 74.8871 59.45C76.1538 59.45 77.4371 59.3333 78.7371 59.1C80.0704 58.8667 81.2038 58.5667 82.1371 58.2V63C81.0371 63.5 79.7538 63.8667 78.2871 64.1C76.8204 64.3667 75.2204 64.5 73.4871 64.5ZM66.3871 50.35H77.6371V49.05C77.6371 47.6833 77.2371 46.6167 76.4371 45.85C75.6371 45.05 74.2871 44.65 72.3871 44.65C70.1538 44.65 68.5871 45.1 67.6871 46C66.8204 46.9 66.3871 48.35 66.3871 50.35ZM102.023 64V45.5H98.723V40.3H102.023V37.95C102.023 36.2833 102.423 34.8 103.223 33.5C104.023 32.2 105.173 31.1667 106.673 30.4C108.206 29.6333 110.006 29.25 112.073 29.25C114.706 29.25 116.823 29.5833 118.423 30.25V35.25C117.99 35.0167 117.34 34.85 116.473 34.75C115.606 34.6167 114.84 34.55 114.173 34.55C112.24 34.55 110.856 34.8333 110.023 35.4C109.19 35.9667 108.773 36.8833 108.773 38.15V40.3H122.373V64H115.623V45.5H108.773V64H102.023ZM128.817 64V40.3H135.067L135.367 42.75C136.433 42.0833 137.75 41.4833 139.317 40.95C140.917 40.3833 142.483 40 144.017 39.8V44.9C143.117 45.0333 142.133 45.2333 141.067 45.5C140 45.7667 138.983 46.0667 138.017 46.4C137.05 46.7333 136.233 47.0833 135.567 47.45V64H128.817ZM156.325 64.5C154.558 64.5 152.875 64.3667 151.275 64.1C149.675 63.8667 148.392 63.5667 147.425 63.2V57.6C148.592 58.0667 149.908 58.4333 151.375 58.7C152.842 58.9333 154.192 59.05 155.425 59.05C157.092 59.05 158.258 58.95 158.925 58.75C159.625 58.55 159.975 58.1 159.975 57.4C159.975 56.6 159.442 56.0167 158.375 55.65C157.342 55.2833 155.792 54.7667 153.725 54.1C151.558 53.3667 149.892 52.4833 148.725 51.45C147.558 50.4167 146.975 48.8833 146.975 46.85C146.975 44.5833 147.792 42.85 149.425 41.65C151.092 40.4167 153.758 39.8 157.425 39.8C158.892 39.8 160.275 39.9167 161.575 40.15C162.875 40.35 163.975 40.6 164.875 40.9V46.45C163.975 46.0167 162.942 45.7 161.775 45.5C160.608 45.2667 159.525 45.15 158.525 45.15C157.092 45.15 155.942 45.25 155.075 45.45C154.242 45.65 153.825 46.0833 153.825 46.75C153.825 47.4833 154.275 48 155.175 48.3C156.108 48.6 157.542 49.05 159.475 49.65C161.375 50.2167 162.858 50.8333 163.925 51.5C164.992 52.1667 165.742 52.9667 166.175 53.9C166.608 54.8 166.825 55.9333 166.825 57.3C166.825 62.1 163.325 64.5 156.325 64.5ZM180.928 64.5C178.194 64.5 176.161 63.7833 174.828 62.35C173.528 60.9167 172.878 58.9667 172.878 56.5V45.5H169.528V40.3H172.878V35.2L179.628 33.2V40.3H185.628L185.228 45.5H179.628V56.05C179.628 57.35 179.928 58.25 180.528 58.75C181.128 59.2167 182.061 59.45 183.328 59.45C184.261 59.45 185.228 59.2833 186.228 58.95V63.6C185.494 63.9 184.694 64.1167 183.828 64.25C182.961 64.4167 181.994 64.5 180.928 64.5ZM214.278 64.5C210.045 64.5 206.795 63.45 204.528 61.35C202.295 59.25 201.178 56.1833 201.178 52.15C201.178 47.9833 202.378 44.8833 204.778 42.85C207.211 40.8167 210.445 39.8 214.478 39.8C216.145 39.8 217.578 39.9167 218.778 40.15C219.978 40.3833 221.145 40.7667 222.278 41.3V46.15C221.445 45.75 220.478 45.4333 219.378 45.2C218.278 44.9667 217.095 44.85 215.828 44.85C213.295 44.85 211.361 45.3833 210.028 46.45C208.695 47.4833 208.028 49.3833 208.028 52.15C208.028 54.6833 208.628 56.5333 209.828 57.7C211.061 58.8667 213.045 59.45 215.778 59.45C216.945 59.45 218.078 59.3333 219.178 59.1C220.311 58.8667 221.361 58.5167 222.328 58.05V63.05C220.095 64.0167 217.411 64.5 214.278 64.5ZM239.192 64.5C234.759 64.5 231.509 63.4333 229.442 61.3C227.376 59.1333 226.342 56.0833 226.342 52.15C226.342 48.2167 227.376 45.1833 229.442 43.05C231.542 40.8833 234.792 39.8 239.192 39.8C243.626 39.8 246.876 40.8833 248.942 43.05C251.042 45.1833 252.092 48.2167 252.092 52.15C252.092 56.0833 251.059 59.1333 248.992 61.3C246.926 63.4333 243.659 64.5 239.192 64.5ZM239.192 58.75C241.359 58.75 242.909 58.2667 243.842 57.3C244.776 56.3 245.242 54.5833 245.242 52.15C245.242 49.7167 244.776 48.0167 243.842 47.05C242.909 46.05 241.359 45.55 239.192 45.55C237.059 45.55 235.526 46.05 234.592 47.05C233.659 48.0167 233.192 49.7167 233.192 52.15C233.192 54.5833 233.659 56.3 234.592 57.3C235.526 58.2667 237.059 58.75 239.192 58.75ZM257.536 64V40.3H263.786L264.036 42.6C265.169 41.7333 266.402 41.05 267.736 40.55C269.102 40.05 270.569 39.8 272.136 39.8C273.802 39.8 275.086 40.05 275.986 40.55C276.919 41.05 277.636 41.7667 278.136 42.7C279.236 41.8333 280.486 41.1333 281.886 40.6C283.319 40.0667 285.002 39.8 286.936 39.8C289.669 39.8 291.686 40.5167 292.986 41.95C294.286 43.35 294.936 45.5 294.936 48.4V64H288.286V49.15C288.286 47.5833 287.952 46.4667 287.286 45.8C286.619 45.1 285.552 44.75 284.086 44.75C282.086 44.75 280.419 45.4667 279.086 46.9C279.252 47.4667 279.336 48.15 279.336 48.95V64H273.036V49.15C273.036 47.6833 272.786 46.5833 272.286 45.85C271.786 45.1167 270.819 44.75 269.386 44.75C268.386 44.75 267.436 45.0167 266.536 45.55C265.669 46.05 264.886 46.6333 264.186 47.3V64H257.536ZM301.205 64V40.3H307.455L307.705 42.6C308.839 41.7333 310.072 41.05 311.405 40.55C312.772 40.05 314.239 39.8 315.805 39.8C317.472 39.8 318.755 40.05 319.655 40.55C320.589 41.05 321.305 41.7667 321.805 42.7C322.905 41.8333 324.155 41.1333 325.555 40.6C326.989 40.0667 328.672 39.8 330.605 39.8C333.339 39.8 335.355 40.5167 336.655 41.95C337.955 43.35 338.605 45.5 338.605 48.4V64H331.955V49.15C331.955 47.5833 331.622 46.4667 330.955 45.8C330.289 45.1 329.222 44.75 327.755 44.75C325.755 44.75 324.089 45.4667 322.755 46.9C322.922 47.4667 323.005 48.15 323.005 48.95V64H316.705V49.15C316.705 47.6833 316.455 46.5833 315.955 45.85C315.455 45.1167 314.489 44.75 313.055 44.75C312.055 44.75 311.105 45.0167 310.205 45.55C309.339 46.05 308.555 46.6333 307.855 47.3V64H301.205ZM353.625 64.5C350.792 64.5 348.575 63.7167 346.975 62.15C345.409 60.55 344.625 58.2167 344.625 55.15V40.3H351.375V55C351.375 56.6 351.759 57.7667 352.525 58.5C353.292 59.2 354.442 59.55 355.975 59.55C357.142 59.55 358.209 59.3167 359.175 58.85C360.175 58.3833 361.025 57.8 361.725 57.1V40.3H368.475V64H362.225L361.975 61.75C360.975 62.55 359.792 63.2167 358.425 63.75C357.092 64.25 355.492 64.5 353.625 64.5ZM374.971 64V40.3H381.221L381.471 42.55C382.438 41.8167 383.654 41.1833 385.121 40.65C386.621 40.0833 388.188 39.8 389.821 39.8C392.954 39.8 395.238 40.5333 396.671 42C398.104 43.4667 398.821 45.7333 398.821 48.8V64H392.071V49.15C392.071 47.55 391.738 46.4167 391.071 45.75C390.438 45.0833 389.238 44.75 387.471 44.75C386.438 44.75 385.388 44.9833 384.321 45.45C383.288 45.9167 382.421 46.5 381.721 47.2V64H374.971ZM406.717 35.95V30.65H414.067V35.95H406.717ZM407.267 64V45.3H403.717L404.317 40.3H414.017V64H407.267ZM429.914 64.5C427.181 64.5 425.147 63.7833 423.814 62.35C422.514 60.9167 421.864 58.9667 421.864 56.5V45.5H418.514V40.3H421.864V35.2L428.614 33.2V40.3H434.614L434.214 45.5H428.614V56.05C428.614 57.35 428.914 58.25 429.514 58.75C430.114 59.2167 431.047 59.45 432.314 59.45C433.247 59.45 434.214 59.2833 435.214 58.95V63.6C434.481 63.9 433.681 64.1167 432.814 64.25C431.947 64.4167 430.981 64.5 429.914 64.5ZM443.382 72.8C442.349 72.8 441.432 72.7333 440.632 72.6C439.832 72.5 439.049 72.3 438.282 72V67.25C438.849 67.45 439.365 67.5833 439.832 67.65C440.332 67.7167 440.832 67.75 441.332 67.75C442.699 67.75 443.749 67.4333 444.482 66.8C445.249 66.1667 446.015 65.1 446.782 63.6L436.182 40.3H443.232L450.182 56.4L457.082 40.3H464.082L454.732 62.35C453.865 64.4167 452.915 66.2333 451.882 67.8C450.882 69.4 449.699 70.6333 448.332 71.5C446.965 72.3667 445.315 72.8 443.382 72.8ZM12.75 121.5C10.65 121.5 8.76667 121.133 7.1 120.4C5.46667 119.633 4.18333 118.4 3.25 116.7C2.31667 114.967 1.85 112.683 1.85 109.85C1.85 107.017 2.36667 104.633 3.4 102.7C4.43333 100.767 5.81667 99.3 7.55 98.3C9.28333 97.3 11.1833 96.8 13.25 96.8C15.85 96.8 18.0667 97.4 19.9 98.6V87.3H26.65V121H20.85L20.45 118.8C19.4167 119.7 18.2833 120.383 17.05 120.85C15.85 121.283 14.4167 121.5 12.75 121.5ZM14.6 116.55C16.7 116.55 18.4667 115.833 19.9 114.4V103.6C18.5 102.367 16.8667 101.75 15 101.75C10.8 101.75 8.7 104.45 8.7 109.85C8.7 112.383 9.21667 114.133 10.25 115.1C11.2833 116.067 12.7333 116.55 14.6 116.55ZM33.0922 121V97.3H39.3422L39.6422 99.75C40.7089 99.0833 42.0255 98.4833 43.5922 97.95C45.1922 97.3833 46.7589 97 48.2922 96.8V101.9C47.3922 102.033 46.4089 102.233 45.3422 102.5C44.2755 102.767 43.2589 103.067 42.2922 103.4C41.3255 103.733 40.5089 104.083 39.8422 104.45V121H33.0922ZM54.1445 92.95V87.65H61.4945V92.95H54.1445ZM54.6945 121V102.3H51.1445L51.7445 97.3H61.4445V121H54.6945ZM75.3152 121L65.9652 97.3H73.0152L78.9152 114.2L84.8652 97.3H91.8652L82.5652 121H75.3152ZM106.97 121.5C102.87 121.5 99.6195 120.483 97.2195 118.45C94.8195 116.383 93.6195 113.267 93.6195 109.1C93.6195 105.333 94.6195 102.35 96.6195 100.15C98.6529 97.9167 101.67 96.8 105.67 96.8C109.336 96.8 112.136 97.7667 114.07 99.7C116.036 101.6 117.02 104.1 117.02 107.2V111.5H99.8695C100.236 113.4 101.103 114.7 102.47 115.4C103.87 116.1 105.836 116.45 108.37 116.45C109.636 116.45 110.92 116.333 112.22 116.1C113.553 115.867 114.686 115.567 115.62 115.2V120C114.52 120.5 113.236 120.867 111.77 121.1C110.303 121.367 108.703 121.5 106.97 121.5ZM99.8695 107.35H111.12V106.05C111.12 104.683 110.72 103.617 109.92 102.85C109.12 102.05 107.77 101.65 105.87 101.65C103.636 101.65 102.07 102.1 101.17 103C100.303 103.9 99.8695 105.35 99.8695 107.35ZM122.469 121V97.3H128.719L128.969 99.55C129.936 98.8167 131.152 98.1833 132.619 97.65C134.119 97.0833 135.686 96.8 137.319 96.8C140.452 96.8 142.736 97.5333 144.169 99C145.602 100.467 146.319 102.733 146.319 105.8V121H139.569V106.15C139.569 104.55 139.236 103.417 138.569 102.75C137.936 102.083 136.736 101.75 134.969 101.75C133.936 101.75 132.886 101.983 131.819 102.45C130.786 102.917 129.919 103.5 129.219 104.2V121H122.469ZM173.701 121.5C170.968 121.5 168.935 120.783 167.601 119.35C166.301 117.917 165.651 115.967 165.651 113.5V102.5H162.301V97.3H165.651V92.2L172.401 90.2V97.3H178.401L178.001 102.5H172.401V113.05C172.401 114.35 172.701 115.25 173.301 115.75C173.901 116.217 174.835 116.45 176.101 116.45C177.035 116.45 178.001 116.283 179.001 115.95V120.6C178.268 120.9 177.468 121.117 176.601 121.25C175.735 121.417 174.768 121.5 173.701 121.5ZM197.565 121.5C193.132 121.5 189.882 120.433 187.815 118.3C185.749 116.133 184.715 113.083 184.715 109.15C184.715 105.217 185.749 102.183 187.815 100.05C189.915 97.8833 193.165 96.8 197.565 96.8C201.999 96.8 205.249 97.8833 207.315 100.05C209.415 102.183 210.465 105.217 210.465 109.15C210.465 113.083 209.432 116.133 207.365 118.3C205.299 120.433 202.032 121.5 197.565 121.5ZM197.565 115.75C199.732 115.75 201.282 115.267 202.215 114.3C203.149 113.3 203.615 111.583 203.615 109.15C203.615 106.717 203.149 105.017 202.215 104.05C201.282 103.05 199.732 102.55 197.565 102.55C195.432 102.55 193.899 103.05 192.965 104.05C192.032 105.017 191.565 106.717 191.565 109.15C191.565 111.583 192.032 113.3 192.965 114.3C193.899 115.267 195.432 115.75 197.565 115.75ZM218.409 121V87.3H225.159V105.85L234.009 97.3H241.709L232.159 107L242.259 121H235.109L227.909 110.55L225.159 113.2V121H218.409ZM258.96 121.5C254.86 121.5 251.61 120.483 249.21 118.45C246.81 116.383 245.61 113.267 245.61 109.1C245.61 105.333 246.61 102.35 248.61 100.15C250.643 97.9167 253.66 96.8 257.66 96.8C261.326 96.8 264.126 97.7667 266.06 99.7C268.026 101.6 269.01 104.1 269.01 107.2V111.5H251.86C252.226 113.4 253.093 114.7 254.46 115.4C255.86 116.1 257.826 116.45 260.36 116.45C261.626 116.45 262.91 116.333 264.21 116.1C265.543 115.867 266.676 115.567 267.61 115.2V120C266.51 120.5 265.226 120.867 263.76 121.1C262.293 121.367 260.693 121.5 258.96 121.5ZM251.86 107.35H263.11V106.05C263.11 104.683 262.71 103.617 261.91 102.85C261.11 102.05 259.76 101.65 257.86 101.65C255.626 101.65 254.06 102.1 253.16 103C252.293 103.9 251.86 105.35 251.86 107.35ZM276.959 121V97.3H283.209L283.459 99.55C284.426 98.8167 285.643 98.1833 287.109 97.65C288.609 97.0833 290.176 96.8 291.809 96.8C294.943 96.8 297.226 97.5333 298.659 99C300.093 100.467 300.809 102.733 300.809 105.8V121H294.059V106.15C294.059 104.55 293.726 103.417 293.059 102.75C292.426 102.083 291.226 101.75 289.459 101.75C288.426 101.75 287.376 101.983 286.309 102.45C285.276 102.917 284.409 103.5 283.709 104.2V121H276.959Z" fill="white"/>
<rect x="196" width="18" height="18" fill="#FD5CFA"/>
</svg>
