<svg width="323" height="52" viewBox="0 0 323 52" fill="none" xmlns="http://www.w3.org/2000/svg">
<rect x="22" y="12" width="269" height="32" fill="#5251D1"/>
<path d="M36.25 40.35C28.9467 40.35 25.295 36.5117 25.295 28.835C25.295 24.775 26.1933 21.8117 27.99 19.945C29.81 18.055 32.5633 17.11 36.25 17.11C39.9367 17.11 42.6783 18.055 44.475 19.945C46.295 21.8117 47.205 24.775 47.205 28.835C47.205 36.5117 43.5533 40.35 36.25 40.35ZM36.25 36.325C38.35 36.325 39.9017 35.7183 40.905 34.505C41.9083 33.2683 42.41 31.3783 42.41 28.835C42.41 26.0583 41.92 24.0867 40.94 22.92C39.96 21.73 38.3967 21.135 36.25 21.135C34.1033 21.135 32.54 21.73 31.56 22.92C30.58 24.0867 30.09 26.0583 30.09 28.835C30.09 31.3783 30.5917 33.2683 31.595 34.505C32.5983 35.7183 34.15 36.325 36.25 36.325ZM57.1518 40.35C55.1452 40.35 53.5935 39.79 52.4968 38.67C51.4002 37.55 50.8518 35.9283 50.8518 33.805V23.41H55.5768V33.7C55.5768 34.7967 55.8335 35.6017 56.3468 36.115C56.8835 36.6283 57.7002 36.885 58.7968 36.885C59.5902 36.885 60.3252 36.7333 61.0018 36.43C61.7018 36.1033 62.3085 35.6833 62.8218 35.17V23.41H67.5468V40H63.1718L62.9968 38.425C61.3868 39.7083 59.4385 40.35 57.1518 40.35ZM72.0938 23.41H76.4688L76.6788 25.125C77.4488 24.635 78.3822 24.2033 79.4788 23.83C80.5755 23.4567 81.6605 23.2 82.7338 23.06V26.63C81.7305 26.77 80.6572 27.015 79.5138 27.365C78.3705 27.6917 77.4722 28.0417 76.8188 28.415V40H72.0938V23.41ZM104.514 21.1H97.5837V17.46H116.134V21.1H109.239V40H104.514V21.1ZM123.526 40.35C117.53 40.35 114.531 37.4683 114.531 31.705C114.531 28.905 115.266 26.77 116.736 25.3C118.23 23.8067 120.493 23.06 123.526 23.06C126.56 23.06 128.823 23.8067 130.316 25.3C131.81 26.77 132.556 28.905 132.556 31.705C132.556 37.4683 129.546 40.35 123.526 40.35ZM123.526 36.325C125.066 36.325 126.151 35.975 126.781 35.275C127.435 34.575 127.761 33.385 127.761 31.705C127.761 30.025 127.435 28.835 126.781 28.135C126.151 27.435 125.066 27.085 123.526 27.085C122.01 27.085 120.925 27.435 120.271 28.135C119.641 28.835 119.326 30.025 119.326 31.705C119.326 33.385 119.641 34.575 120.271 35.275C120.925 35.975 122.01 36.325 123.526 36.325ZM136.367 16.41H141.092V29.395L147.287 23.41H152.677L145.992 30.2L153.062 40H148.057L143.017 32.685L141.092 34.54V40H136.367V16.41ZM163.447 40.35C160.507 40.35 158.209 39.6267 156.552 38.18C154.919 36.71 154.102 34.54 154.102 31.67C154.102 28.9633 154.814 26.8517 156.237 25.335C157.684 23.8183 159.784 23.06 162.537 23.06C165.057 23.06 167.005 23.725 168.382 25.055C169.782 26.3617 170.482 28.1233 170.482 30.34V33.35H158.477C158.71 34.6333 159.294 35.5317 160.227 36.045C161.184 36.5583 162.584 36.815 164.427 36.815C165.314 36.815 166.212 36.7333 167.122 36.57C168.055 36.4067 168.849 36.1967 169.502 35.94V39.3C167.962 40 165.944 40.35 163.447 40.35ZM166.352 30.445V29.535C166.352 27.4817 165.127 26.455 162.677 26.455C161.137 26.455 160.052 26.77 159.422 27.4C158.792 28.0067 158.477 29.0217 158.477 30.445H166.352ZM174.297 23.41H178.672L178.847 24.985C179.593 24.425 180.48 23.97 181.507 23.62C182.533 23.2467 183.595 23.06 184.692 23.06C186.862 23.06 188.448 23.5733 189.452 24.6C190.478 25.6033 190.992 27.19 190.992 29.36V40H186.267V29.605C186.267 28.4617 186.033 27.6683 185.567 27.225C185.1 26.7583 184.26 26.525 183.047 26.525C182.323 26.525 181.6 26.6883 180.877 27.015C180.153 27.3183 179.535 27.7267 179.022 28.24V40H174.297V23.41ZM203.112 40.35C197.115 40.35 194.117 37.4683 194.117 31.705C194.117 28.905 194.852 26.77 196.322 25.3C197.815 23.8067 200.078 23.06 203.112 23.06C206.145 23.06 208.408 23.8067 209.902 25.3C211.395 26.77 212.142 28.905 212.142 31.705C212.142 37.4683 209.132 40.35 203.112 40.35ZM203.112 36.325C204.652 36.325 205.737 35.975 206.367 35.275C207.02 34.575 207.347 33.385 207.347 31.705C207.347 30.025 207.02 28.835 206.367 28.135C205.737 27.435 204.652 27.085 203.112 27.085C201.595 27.085 200.51 27.435 199.857 28.135C199.227 28.835 198.912 30.025 198.912 31.705C198.912 33.385 199.227 34.575 199.857 35.275C200.51 35.975 201.595 36.325 203.112 36.325ZM215.952 23.41H220.327L220.502 25.02C222.229 23.7133 224.119 23.06 226.172 23.06C227.292 23.06 228.179 23.235 228.832 23.585C229.485 23.9117 229.999 24.4133 230.372 25.09C231.212 24.4367 232.122 23.935 233.102 23.585C234.105 23.235 235.249 23.06 236.532 23.06C238.445 23.06 239.857 23.5617 240.767 24.565C241.677 25.545 242.132 27.05 242.132 29.08V40H237.477V29.605C237.477 28.5317 237.244 27.75 236.777 27.26C236.31 26.77 235.564 26.525 234.537 26.525C233.884 26.525 233.242 26.665 232.612 26.945C232.005 27.2017 231.48 27.5633 231.037 28.03C231.154 28.4267 231.212 28.905 231.212 29.465V40H226.802V29.605C226.802 28.5317 226.615 27.75 226.242 27.26C225.869 26.77 225.204 26.525 224.247 26.525C223.057 26.525 221.844 27.12 220.607 28.31V40H215.952V23.41ZM248.621 16.655H253.766V20.365H248.621V16.655ZM249.006 26.91H246.521L246.941 23.41H253.731V40H249.006V26.91ZM266.761 40.35C263.798 40.35 261.523 39.615 259.936 38.145C258.373 36.675 257.591 34.5283 257.591 31.705C257.591 28.8583 258.419 26.7117 260.076 25.265C261.733 23.795 264.008 23.06 266.901 23.06C268.068 23.06 269.071 23.1417 269.911 23.305C270.751 23.4683 271.568 23.7367 272.361 24.11V27.505C271.101 26.8983 269.596 26.595 267.846 26.595C266.003 26.595 264.626 26.98 263.716 27.75C262.829 28.52 262.386 29.8383 262.386 31.705C262.386 33.5017 262.806 34.8083 263.646 35.625C264.509 36.4183 265.898 36.815 267.811 36.815C269.538 36.815 271.066 36.4883 272.396 35.835V39.335C270.833 40.0117 268.954 40.35 266.761 40.35ZM282.059 40.35C280.845 40.35 279.679 40.2683 278.559 40.105C277.439 39.9417 276.529 39.72 275.829 39.44V35.52C276.599 35.8467 277.497 36.1033 278.524 36.29C279.55 36.4533 280.519 36.535 281.429 36.535C282.642 36.535 283.47 36.465 283.914 36.325C284.38 36.1617 284.614 35.8467 284.614 35.38C284.614 34.96 284.404 34.6333 283.984 34.4C283.564 34.1667 282.759 33.8633 281.569 33.49C281.219 33.3967 280.775 33.2567 280.239 33.07C278.605 32.5333 277.404 31.8917 276.634 31.145C275.887 30.3983 275.514 29.3483 275.514 27.995C275.514 26.385 276.097 25.16 277.264 24.32C278.454 23.48 280.309 23.06 282.829 23.06C283.785 23.06 284.719 23.13 285.629 23.27C286.562 23.41 287.367 23.5967 288.044 23.83V27.715C287.437 27.435 286.725 27.2133 285.909 27.05C285.092 26.8867 284.322 26.805 283.599 26.805C282.479 26.805 281.65 26.8867 281.114 27.05C280.577 27.19 280.309 27.4817 280.309 27.925C280.309 28.3217 280.495 28.625 280.869 28.835C281.265 29.0217 282.012 29.2783 283.109 29.605L284.264 29.955C285.617 30.375 286.655 30.8183 287.379 31.285C288.102 31.7283 288.615 32.265 288.919 32.895C289.245 33.525 289.409 34.33 289.409 35.31C289.409 36.9667 288.79 38.2267 287.554 39.09C286.317 39.93 284.485 40.35 282.059 40.35Z" fill="#FD5CFA"/>
<rect width="12" height="12" fill="#5251D1"/>
<rect x="300" y="40" width="12" height="12" fill="#5251D1"/>
<rect x="316" y="30" width="7" height="7" fill="#5251D1"/>
</svg>
